# xmcd
#
# Track frame offsets:
#	150
#	12859
#	23786
#	36715
#	49191
#	60847
#	72971
#	83431
#	92623
#	103775
#	115561
#	127026
#	138636
#	149721
#	161167
#	173013
#	185687
#	197847
#	210094
#	222143
#	234872
#	247596
#	260325
#	273091
#	285193
#
# Disc length: 3975 seconds
#
# Revision: 1
# Processed by: cddbd v1.5.2PL0 Copyright (c) Steve Scherf et al.
# Submitted via: audiograbber 1.83.01
#
DISCID=550f8519
DTITLE=Sarah Vaughan - Essence of Sarah Vaugan
DYEAR=1900
DGENRE=
TTITLE0=Nature Boy
TTITLE1=I Cried for You
TTITLE2=September Song
TTITLE3=What a Difference a Day Makes
TTITLE4=Nice Work if you Can Get It
TTITLE5=Spring will be a Lillte Late this Year
TTITLE6=Lonely Girl
TTITLE7=Linger Awhile
TTITLE8=C'est La Vie
TTITLE9=Whatever Lola Wants Lola Gets
TTITLE10=Gentlemen Friend
TTITLE11=As you Desire Me
TTITLE12=How Important Can it Be
TTITLE13=I Love the Guy
TTITLE14=Make Believe
TTITLE15=Mr. Wonderful
TTITLE16=Give me a Song with a Beautiful Melody
TTITLE17=Pinky
TTITLE18=Make Yourself Comfortable
TTITLE19=Experience Unnecessary
TTITLE20=If you Could See me Now
TTITLE21=Can't Get out of this Mood
TTITLE22=You Say you Care
TTITLE23=How am I to Know
TTITLE24=Fool's Paradise
EXTD=
EXTT0=
EXTT1=
EXTT2=
EXTT3=
EXTT4=
EXTT5=
EXTT6=
EXTT7=
EXTT8=
EXTT9=
EXTT10=
EXTT11=
EXTT12=
EXTT13=
EXTT14=
EXTT15=
EXTT16=
EXTT17=
EXTT18=
EXTT19=
EXTT20=
EXTT21=
EXTT22=
EXTT23=
EXTT24=
PLAYORDER=
